<svg width="178" height="50" viewBox="0 0 178 50" fill="none" xmlns="http://www.w3.org/2000/svg">
<path d="M31.2511 31.8586V20.4106C31.2511 20.0984 31.3778 19.7991 31.6033 19.5784C31.8288 19.3576 32.1346 19.2336 32.4535 19.2336H35.1276C35.4464 19.234 35.752 19.3581 35.9774 19.5788C36.2028 19.7994 36.3296 20.0985 36.33 20.4106V32.2558C36.3315 32.9479 36.4807 33.632 36.7681 34.2643C37.0555 34.8967 37.4747 35.4632 37.9989 35.9276C38.5231 36.3921 39.1406 36.7442 39.8119 36.9613C40.4832 37.1785 41.1935 37.2559 41.8972 37.1886C43.1718 37.0303 44.3417 36.4168 45.1825 35.4659C46.0234 34.515 46.4758 33.2936 46.4531 32.0362V20.6235C46.4531 20.3113 46.5798 20.012 46.8053 19.7912C47.0308 19.5705 47.3366 19.4465 47.6555 19.4465H50.3269C50.485 19.4462 50.6415 19.4763 50.7877 19.5353C50.9338 19.5944 51.0666 19.681 51.1784 19.7904C51.2902 19.8997 51.3789 20.0296 51.4394 20.1725C51.4998 20.3155 51.5308 20.4687 51.5307 20.6235V40.7256C51.5303 41.037 51.4037 41.3357 51.1787 41.5559C50.9537 41.7762 50.6486 41.9001 50.3304 41.9004H48.6681C48.0803 41.9004 47.5166 41.6719 47.1009 41.265C46.6853 40.8582 46.4518 40.3064 46.4518 39.731C45.9309 41.0679 42.4817 42.4008 40.156 42.1106C37.6556 41.7474 35.3747 40.5086 33.7367 38.6241C32.0987 36.7396 31.2148 34.3374 31.249 31.8633" fill="white"/>
<path d="M61.8546 28.8755V40.735C61.8548 40.8876 61.8243 41.0387 61.7647 41.1797C61.7052 41.3207 61.6178 41.4488 61.5076 41.5566C61.3974 41.6645 61.2665 41.75 61.1225 41.8083C60.9784 41.8666 60.8241 41.8966 60.6682 41.8964H57.967C57.6522 41.8964 57.3502 41.7741 57.1274 41.5564C56.9045 41.3386 56.7791 41.0432 56.7785 40.735V20.4085C56.7786 20.2538 56.8099 20.1006 56.8705 19.9576C56.9311 19.8147 57.02 19.6849 57.1319 19.5756C57.2438 19.4663 57.3766 19.3796 57.5228 19.3206C57.669 19.2616 57.8256 19.2313 57.9837 19.2316H59.8731C60.1345 19.2314 60.3933 19.2817 60.6348 19.3795C60.8763 19.4773 61.0957 19.6208 61.2806 19.8017C61.4654 19.9826 61.6119 20.1974 61.7119 20.4338C61.8118 20.6702 61.8631 20.9235 61.863 21.1794C62.4193 20.5068 63.1166 19.959 63.9079 19.573C64.6992 19.1871 65.5659 18.9719 66.4494 18.9421C67.8089 18.9521 69.1499 19.2502 70.3804 19.8161C71.6108 20.382 72.7014 21.2021 73.577 22.22C74.4533 21.2023 75.5443 20.3824 76.775 19.8166C78.0058 19.2507 79.347 18.9524 80.7067 18.9421C86.0398 18.9421 90.3748 23.397 90.3748 28.8742V40.7337C90.3747 40.8863 90.3439 41.0375 90.2841 41.1785C90.2243 41.3195 90.1367 41.4476 90.0264 41.5554C89.916 41.6632 89.785 41.7488 89.6409 41.807C89.4967 41.8653 89.3422 41.8952 89.1863 41.895H86.4851C86.1705 41.895 85.8687 41.7727 85.6462 41.5549C85.4237 41.3371 85.2987 41.0417 85.2987 40.7337V28.8755C85.2987 26.1413 83.2417 23.9176 80.7102 23.9176C78.1787 23.9176 76.1237 26.1441 76.1237 28.8755V40.735C76.1236 40.8877 76.0928 41.0388 76.033 41.1798C75.9733 41.3208 75.8857 41.4489 75.7753 41.5568C75.6649 41.6646 75.5339 41.7501 75.3898 41.8084C75.2456 41.8667 75.0912 41.8966 74.9352 41.8964H72.2341C71.9197 41.896 71.6184 41.7735 71.3963 41.5557C71.1742 41.3379 71.0495 41.0428 71.0497 40.735V28.8755C71.0497 26.1413 68.9878 23.9176 66.4612 23.9176C63.9346 23.9176 61.8747 26.1441 61.8747 28.8755H61.8546Z" fill="white"/>
<path d="M99.2637 28.9989C99.2427 29.0834 99.2446 29.1719 99.2695 29.2554C99.2943 29.3389 99.3411 29.4145 99.4052 29.4748C99.4693 29.535 99.5485 29.5777 99.6348 29.5985C99.7211 29.6193 99.8114 29.6176 99.8968 29.5935L110.508 26.5488C110.567 26.5319 110.62 26.5009 110.663 26.4587C110.706 26.4164 110.738 26.3642 110.755 26.3069C110.773 26.2495 110.775 26.1889 110.762 26.1305C110.749 26.0721 110.721 26.0178 110.681 25.9725C109.953 25.2208 109.053 24.6483 108.056 24.3015C107.058 23.9547 105.991 23.8435 104.942 23.977C103.892 24.1105 102.889 24.4849 102.016 25.0697C101.142 25.6545 100.421 26.433 99.9134 27.342C99.6238 27.865 99.4056 28.423 99.2644 29.0016M94.4855 33.7426C94.0257 32.2809 93.8672 30.7443 94.0191 29.2221C94.171 27.6999 94.6303 26.2224 95.3703 24.8754C96.1104 23.5284 97.1164 22.3387 98.33 21.3754C99.5437 20.4121 100.941 19.6944 102.44 19.2639C103.939 18.8335 105.511 18.6988 107.064 18.8678C108.617 19.0369 110.12 19.5062 111.486 20.2485C112.852 20.9908 114.054 21.9914 115.022 23.1921C115.99 24.3928 116.704 25.7698 117.124 27.243C117.311 27.8647 117.437 28.3881 117.516 28.7881C117.564 29.0318 117.517 29.2842 117.384 29.4957C117.251 29.7072 117.043 29.8625 116.799 29.9311L101.33 34.3724C101.247 34.3966 101.171 34.4418 101.11 34.5035C101.049 34.5651 101.006 34.6412 100.984 34.7242C100.962 34.8072 100.963 34.8942 100.986 34.9769C101.009 35.0595 101.054 35.1348 101.116 35.1955C101.555 35.6136 102.049 35.9712 102.587 36.2585C104.015 37.0185 105.676 37.2469 107.262 36.9014C108.849 36.556 110.254 35.66 111.218 34.3792C111.363 34.1836 111.575 34.046 111.816 33.9922C112.056 33.9383 112.309 33.9717 112.526 34.0863L115.219 35.5216C115.343 35.5888 115.452 35.6807 115.539 35.7914C115.625 35.9022 115.687 36.0292 115.721 36.1646C115.754 36.3 115.759 36.4408 115.734 36.578C115.709 36.7152 115.655 36.8458 115.576 36.9615C114.321 38.7745 112.566 40.2009 110.514 41.0744C108.462 41.948 106.2 42.2327 103.989 41.8954C101.778 41.558 99.7115 40.6126 98.029 39.1692C96.3464 37.7259 95.1177 35.8441 94.4861 33.7433" fill="white"/>
<path d="M126.376 28.8755V40.7398C126.376 40.8923 126.345 41.0434 126.286 41.1844C126.226 41.3254 126.139 41.4535 126.029 41.5614C125.919 41.6693 125.788 41.7548 125.644 41.8131C125.5 41.8714 125.345 41.9013 125.189 41.9011H122.488C122.332 41.9013 122.178 41.8714 122.034 41.8131C121.89 41.7549 121.759 41.6693 121.648 41.5615C121.538 41.4536 121.45 41.3256 121.39 41.1846C121.331 41.0436 121.3 40.8924 121.3 40.7398V20.4106C121.3 20.0977 121.427 19.7977 121.653 19.5764C121.879 19.3552 122.185 19.2309 122.505 19.2309H124.394C124.656 19.2307 124.914 19.281 125.156 19.3788C125.397 19.4766 125.617 19.6201 125.802 19.801C125.987 19.9819 126.133 20.1967 126.233 20.4331C126.333 20.6695 126.384 20.9229 126.384 21.1787V21.3089C127.202 20.5033 128.189 19.8813 129.276 19.4859C130.364 19.0905 131.526 18.9311 132.683 19.0187C135.182 19.3838 137.462 20.623 139.1 22.5071C140.738 24.3911 141.623 26.7923 141.592 29.266V40.7344C141.591 41.0426 141.466 41.3379 141.243 41.5557C141.02 41.7734 140.718 41.8957 140.403 41.8957H137.697C137.382 41.8953 137.081 41.7728 136.859 41.555C136.637 41.3373 136.512 41.0421 136.512 40.7344V29.0972C136.534 27.8396 136.081 26.6184 135.239 25.6676C134.398 24.7168 133.228 24.1034 131.953 23.9448C131.249 23.8758 130.538 23.952 129.866 24.1685C129.194 24.385 128.575 24.737 128.051 25.2017C127.526 25.6665 127.106 26.2337 126.819 26.8668C126.532 27.4999 126.384 28.1849 126.383 28.8776H126.379L126.376 28.8755Z" fill="white"/>
<path d="M150.427 35.2761C150.427 37.5188 153.51 37.6327 154.129 37.6327C156.41 37.6327 159.577 36.4876 160.756 33.5162C159.085 32.6922 157.237 32.2699 155.366 32.2843C154.47 32.2758 153.577 32.3959 152.716 32.6409C150.698 33.2396 150.43 34.3073 150.43 35.2768M145.348 35.2721C145.348 30.4376 149.288 27.3149 155.379 27.3149C157.356 27.3221 159.318 27.6521 161.184 28.2911C161.093 27.1037 160.547 25.9937 159.656 25.1828C158.765 24.3718 157.595 23.9196 156.378 23.9163C154.771 23.83 153.166 24.1364 151.71 24.8078C151.418 24.9551 151.081 24.9914 150.764 24.9099C150.447 24.8285 150.171 24.6349 149.991 24.3665L148.658 22.3326C148.56 22.1846 148.494 22.0184 148.465 21.8443C148.435 21.6703 148.443 21.4922 148.488 21.3213C148.532 21.1503 148.612 20.9903 148.723 20.8512C148.834 20.7121 148.973 20.5969 149.131 20.5129C151.384 19.3788 153.9 18.839 156.432 18.9469C159.057 18.9575 161.571 19.9869 163.422 21.8095C165.273 23.632 166.31 26.0988 166.305 28.6688V40.7791C166.305 41.0703 166.187 41.3496 165.977 41.5557C165.767 41.7619 165.482 41.878 165.185 41.8788H163.991C163.628 41.8787 163.268 41.8084 162.932 41.672C162.597 41.5356 162.292 41.3357 162.035 41.0838C161.779 40.8319 161.575 40.533 161.437 40.204C161.298 39.8751 161.228 39.5227 161.229 39.1669C160.045 41.0652 156.603 42.6001 154.136 42.6001C148.964 42.6001 145.353 39.5873 145.353 35.2694" fill="white"/>
<path d="M174.656 16.7394C174.01 16.7272 173.382 16.5285 172.851 16.1683C172.321 15.8081 171.91 15.3025 171.671 14.7149C171.433 14.1273 171.377 13.4838 171.511 12.8651C171.644 12.2465 171.961 11.6802 172.423 11.2374C172.884 10.7945 173.468 10.4948 174.103 10.3758C174.737 10.2568 175.393 10.3238 175.989 10.5685C176.585 10.8131 177.093 11.2245 177.451 11.751C177.809 12.2775 178 12.8956 178 13.528C177.988 14.3869 177.63 15.2065 177.004 15.8081C176.378 16.4098 175.534 16.7445 174.656 16.7394Z" fill="#27C28C"/>
<path d="M177.192 40.9147C177.191 41.1745 177.085 41.4234 176.898 41.6071C176.71 41.7908 176.456 41.8943 176.19 41.895H173.112C172.847 41.8948 172.592 41.7915 172.404 41.6077C172.216 41.424 172.11 41.1747 172.11 40.9147V20.2113C172.111 19.9515 172.217 19.7025 172.404 19.5188C172.592 19.3352 172.846 19.2316 173.112 19.2309H176.19C176.455 19.2316 176.709 19.3352 176.897 19.5188C177.085 19.7025 177.19 19.9515 177.191 20.2113L177.192 40.9147Z" fill="white"/>
<path d="M25.8495 40.9154C25.8486 41.1756 25.7424 41.4248 25.5541 41.6085C25.3659 41.7923 25.111 41.8955 24.8452 41.8957H21.7721C21.5063 41.8955 21.2514 41.7923 21.0631 41.6085C20.8749 41.4248 20.7687 41.1756 20.7678 40.9154V0.980326C20.7687 0.720133 20.8749 0.470894 21.0631 0.287163C21.2514 0.103433 21.5063 0.000177776 21.7721 0H24.8452C25.111 0.000177776 25.3659 0.103433 25.5541 0.287163C25.7424 0.470894 25.8486 0.720133 25.8495 0.980326V40.9154Z" fill="white"/>
<path d="M15.4618 49.0183C15.4612 49.2787 15.3552 49.5283 15.1669 49.7124C14.9787 49.8964 14.7235 49.9998 14.4575 50H11.3844C11.1186 49.9998 10.8636 49.8966 10.6754 49.7128C10.4872 49.5291 10.381 49.2799 10.3801 49.0197V15.5503C10.3807 15.29 10.4867 15.0405 10.675 14.8567C10.8633 14.6729 11.1185 14.5698 11.3844 14.57H14.4575C14.7233 14.5702 14.9782 14.6734 15.1664 14.8571C15.3547 15.0409 15.4608 15.2901 15.4618 15.5503V49.0183Z" fill="#27C28C"/>
<path d="M5.08166 40.6544C5.08056 40.9144 4.97429 41.1635 4.78609 41.3471C4.59789 41.5307 4.34307 41.6338 4.07738 41.634H1.00428C0.738583 41.6338 0.48377 41.5307 0.29557 41.3471C0.107369 41.1635 0.00109862 40.9144 0 40.6544V7.18431C0.000915915 6.92412 0.107106 6.67488 0.295326 6.49115C0.483546 6.30742 0.738464 6.20416 1.00428 6.20398H4.07738C4.34319 6.20416 4.59811 6.30742 4.78633 6.49115C4.97455 6.67488 5.08074 6.92412 5.08166 7.18431V40.6544Z" fill="#000052"/>
</svg>
