<svg width="19" height="19" viewBox="0 0 19 19" fill="none" xmlns="http://www.w3.org/2000/svg">
<path d="M0 2.20707C0 1.56734 0.213964 1.03956 0.641892 0.623737C1.06982 0.207912 1.62613 0 2.31081 0C2.98327 0 3.52735 0.204714 3.94305 0.614141C4.37098 1.03636 4.58494 1.58653 4.58494 2.26465C4.58494 2.87879 4.37709 3.39057 3.96139 3.8C3.53346 4.22222 2.97104 4.43333 2.27413 4.43333H2.25579C1.58333 4.43333 1.03925 4.22222 0.623552 3.8C0.207851 3.37778 0 2.8468 0 2.20707ZM0.238417 19V6.1798H4.30985V19H0.238417ZM6.56564 19H10.6371V11.8414C10.6371 11.3936 10.686 11.0481 10.7838 10.8051C10.955 10.37 11.2148 10.0022 11.5632 9.70152C11.9117 9.40084 12.3488 9.25051 12.8745 9.25051C14.2439 9.25051 14.9286 10.2165 14.9286 12.1485V19H19V11.6495C19 9.75589 18.5721 8.3197 17.7162 7.34091C16.8604 6.36212 15.7294 5.87273 14.3234 5.87273C12.7461 5.87273 11.5174 6.58283 10.6371 8.00303V8.04141H10.6187L10.6371 8.00303V6.1798H6.56564C6.59009 6.58923 6.60232 7.86229 6.60232 9.99899C6.60232 12.1357 6.59009 15.136 6.56564 19Z" fill="white"/>
</svg>
