<svg width="83" height="24" viewBox="0 0 83 24" fill="none" xmlns="http://www.w3.org/2000/svg">
<path d="M14.5722 15.2921V9.79707C14.5722 9.64725 14.6312 9.50355 14.7364 9.39761C14.8415 9.29166 14.9841 9.23215 15.1328 9.23215H16.3797C16.5284 9.23232 16.6709 9.29189 16.776 9.3978C16.8811 9.50371 16.9402 9.6473 16.9404 9.79707V15.4828C16.9411 15.815 17.0107 16.1434 17.1447 16.4469C17.2787 16.7504 17.4742 17.0223 17.7186 17.2453C17.963 17.4682 18.251 17.6372 18.564 17.7414C18.877 17.8457 19.2082 17.8828 19.5363 17.8506C20.1306 17.7745 20.6762 17.4801 21.0683 17.0236C21.4603 16.5672 21.6713 15.9809 21.6607 15.3774V9.89926C21.6607 9.74943 21.7198 9.60574 21.8249 9.49979C21.9301 9.39385 22.0727 9.33433 22.2214 9.33433H23.467C23.5407 9.33416 23.6138 9.34865 23.6819 9.37697C23.75 9.40529 23.8119 9.44689 23.8641 9.49937C23.9162 9.55185 23.9576 9.61419 23.9858 9.68281C24.014 9.75144 24.0284 9.82499 24.0283 9.89926V19.5483C24.0282 19.6978 23.9691 19.8411 23.8642 19.9468C23.7593 20.0526 23.617 20.112 23.4687 20.1122H22.6936C22.4195 20.1122 22.1566 20.0025 21.9628 19.8072C21.769 19.6119 21.6601 19.3471 21.6601 19.0709C21.4172 19.7126 19.8089 20.3524 18.7244 20.2131C17.5585 20.0388 16.4949 19.4441 15.7312 18.5396C14.9674 17.635 14.5552 16.4819 14.5712 15.2944" fill="white"/>
<path d="M28.8423 13.8603V19.5528C28.8424 19.626 28.8282 19.6986 28.8004 19.7662C28.7726 19.8339 28.7319 19.8954 28.6805 19.9472C28.6291 19.999 28.5681 20.04 28.5009 20.068C28.4338 20.096 28.3618 20.1103 28.2891 20.1103H27.0296C26.8828 20.1103 26.7419 20.0516 26.638 19.9471C26.5341 19.8425 26.4756 19.7008 26.4754 19.5528V9.7961C26.4754 9.72181 26.49 9.64826 26.5183 9.57966C26.5465 9.51105 26.588 9.44873 26.6401 9.39627C26.6923 9.3438 26.7543 9.30221 26.8224 9.27388C26.8906 9.24556 26.9636 9.23104 27.0373 9.23117H27.9184C28.0402 9.23108 28.1609 9.25521 28.2735 9.30216C28.3861 9.34912 28.4885 9.41798 28.5746 9.50481C28.6608 9.59165 28.7292 9.69475 28.7758 9.80822C28.8224 9.92169 28.8463 10.0433 28.8462 10.1661C29.1056 9.84326 29.4308 9.58032 29.7997 9.39505C30.1687 9.20978 30.5728 9.10651 30.9848 9.09221C31.6187 9.09699 32.2441 9.24011 32.8178 9.51173C33.3916 9.78335 33.9001 10.177 34.3084 10.6656C34.717 10.1771 35.2257 9.78354 35.7996 9.51194C36.3735 9.24034 36.9989 9.09715 37.6329 9.09221C40.1197 9.09221 42.1411 11.2305 42.1411 13.8596V19.5522C42.141 19.6254 42.1267 19.698 42.0988 19.7657C42.0709 19.8333 42.0301 19.8948 41.9786 19.9466C41.9271 19.9984 41.866 20.0394 41.7988 20.0674C41.7316 20.0953 41.6596 20.1097 41.5869 20.1096H40.3273C40.1806 20.1096 40.0399 20.0509 39.9361 19.9463C39.8324 19.8418 39.7741 19.7 39.7741 19.5522V13.8603C39.7741 12.5478 38.8149 11.4805 37.6345 11.4805C36.4541 11.4805 35.4959 12.5491 35.4959 13.8603V19.5528C35.4959 19.6261 35.4815 19.6986 35.4536 19.7663C35.4257 19.834 35.3849 19.8955 35.3334 19.9472C35.282 19.999 35.2209 20.0401 35.1537 20.068C35.0865 20.096 35.0144 20.1103 34.9417 20.1103H33.6822C33.5356 20.1101 33.3951 20.0513 33.2915 19.9467C33.188 19.8422 33.1298 19.7005 33.1299 19.5528V13.8603C33.1299 12.5478 32.1685 11.4805 30.9903 11.4805C29.8122 11.4805 28.8517 12.5491 28.8517 13.8603H28.8423Z" fill="white"/>
<path d="M46.2859 13.9195C46.2761 13.96 46.277 14.0025 46.2886 14.0426C46.3002 14.0827 46.322 14.119 46.3519 14.1479C46.3818 14.1768 46.4187 14.1973 46.4589 14.2073C46.4991 14.2173 46.5413 14.2165 46.5811 14.2049L51.5291 12.7434C51.5564 12.7353 51.5813 12.7204 51.6014 12.7002C51.6215 12.6799 51.6363 12.6548 51.6443 12.6273C51.6524 12.5998 51.6534 12.5707 51.6474 12.5426C51.6414 12.5146 51.6285 12.4885 51.6099 12.4668C51.2702 12.106 50.8507 11.8312 50.3856 11.6647C49.9205 11.4983 49.4229 11.4449 48.9335 11.509C48.444 11.5731 47.9765 11.7528 47.569 12.0335C47.1616 12.3141 46.8257 12.6879 46.5888 13.1242C46.4538 13.3752 46.352 13.643 46.2862 13.9208M44.0578 16.1964C43.8434 15.4948 43.7695 14.7573 43.8404 14.0266C43.9112 13.296 44.1254 12.5868 44.4704 11.9402C44.8155 11.2936 45.2846 10.7226 45.8505 10.2602C46.4164 9.7978 47.0679 9.4533 47.767 9.24668C48.4661 9.04006 49.199 8.97543 49.9231 9.05656C50.6472 9.13769 51.3482 9.36295 51.9852 9.71927C52.6222 10.0756 53.1826 10.5559 53.6339 11.1322C54.0851 11.7086 54.4183 12.3695 54.614 13.0766C54.7012 13.3751 54.76 13.6263 54.7968 13.8183C54.819 13.9353 54.7971 14.0564 54.7353 14.1579C54.6734 14.2594 54.5761 14.334 54.4625 14.3669L47.2496 16.4988C47.2105 16.5104 47.175 16.5321 47.1467 16.5617C47.1184 16.5913 47.0982 16.6278 47.0881 16.6676C47.078 16.7074 47.0783 16.7492 47.0891 16.7889C47.0999 16.8286 47.1207 16.8647 47.1495 16.8938C47.3541 17.0945 47.5849 17.2662 47.8355 17.4041C48.5013 17.7689 49.2757 17.8785 50.0155 17.7127C50.7553 17.5469 51.4106 17.1168 51.8601 16.502C51.9276 16.4081 52.0266 16.3421 52.1388 16.3162C52.2509 16.2904 52.3686 16.3064 52.4699 16.3614L53.7255 17.0503C53.7837 17.0826 53.8345 17.1268 53.8748 17.1799C53.9151 17.233 53.944 17.294 53.9597 17.359C53.9754 17.424 53.9774 17.4916 53.9658 17.5574C53.9542 17.6233 53.9291 17.686 53.8922 17.7415C53.307 18.6117 52.4884 19.2964 51.5318 19.7157C50.5752 20.135 49.52 20.2717 48.4893 20.1098C47.4585 19.9479 46.4947 19.494 45.7101 18.8012C44.9256 18.1084 44.3527 17.2052 44.0581 16.1968" fill="white"/>
<path d="M58.9281 13.8603V19.5551C58.9281 19.6283 58.9139 19.7008 58.8861 19.7685C58.8584 19.8362 58.8176 19.8977 58.7662 19.9495C58.7148 20.0012 58.6538 20.0423 58.5866 20.0703C58.5195 20.0983 58.4475 20.1126 58.3748 20.1125H57.1153C57.0426 20.1126 56.9706 20.0983 56.9033 20.0703C56.8361 20.0423 56.775 20.0013 56.7236 19.9495C56.6721 19.8978 56.6313 19.8363 56.6034 19.7686C56.5755 19.7009 56.5611 19.6284 56.5611 19.5551V9.79707C56.5611 9.6469 56.6203 9.50288 56.7257 9.39669C56.8311 9.2905 56.974 9.23084 57.123 9.23084H58.0041C58.126 9.23076 58.2466 9.25488 58.3592 9.30184C58.4719 9.34879 58.5742 9.41765 58.6604 9.50449C58.7465 9.59132 58.8149 9.69442 58.8615 9.80789C58.9081 9.92136 58.932 10.043 58.9319 10.1658V10.2283C59.3132 9.84159 59.7734 9.54303 60.2805 9.35323C60.7876 9.16342 61.3296 9.08691 61.8689 9.12899C63.0345 9.30421 64.0976 9.89906 64.8614 10.8034C65.6252 11.7077 66.0379 12.8603 66.0231 14.0477V19.5525C66.0228 19.7004 65.9643 19.8422 65.8604 19.9467C65.7565 20.0512 65.6157 20.1099 65.4689 20.1099H64.2068C64.0602 20.1098 63.9197 20.0509 63.8161 19.9464C63.7126 19.8419 63.6544 19.7002 63.6545 19.5525V13.9667C63.6646 13.363 63.4533 12.7768 63.0611 12.3205C62.6688 11.8641 62.1232 11.5696 61.5288 11.4935C61.2005 11.4604 60.8689 11.497 60.5555 11.6009C60.242 11.7048 59.9536 11.8738 59.709 12.0968C59.4643 12.3199 59.2687 12.5922 59.1348 12.8961C59.0009 13.1999 58.9317 13.5287 58.9316 13.8612H58.9294L58.9281 13.8603Z" fill="white"/>
<path d="M70.1431 16.9325C70.1431 18.009 71.5806 18.0637 71.8689 18.0637C72.9328 18.0637 74.4093 17.5141 74.9593 16.0878C74.1801 15.6922 73.3186 15.4895 72.4461 15.4965C72.028 15.4924 71.6116 15.55 71.2101 15.6676C70.2693 15.955 70.1444 16.4675 70.1444 16.9329M67.7748 16.9306C67.7748 14.61 69.6118 13.1111 72.4519 13.1111C73.3738 13.1146 74.2887 13.273 75.1589 13.5797C75.1162 13.0098 74.8618 12.477 74.4464 12.0877C74.031 11.6985 73.4852 11.4814 72.9179 11.4798C72.1683 11.4384 71.4203 11.5854 70.7412 11.9077C70.6052 11.9784 70.4481 11.9959 70.3001 11.9568C70.1521 11.9177 70.0237 11.8247 69.9396 11.6959L69.3179 10.7196C69.2722 10.6486 69.2415 10.5688 69.2279 10.4853C69.2142 10.4017 69.2179 10.3163 69.2387 10.2342C69.2594 10.1522 69.2968 10.0753 69.3484 10.0086C69.4001 9.94179 69.4649 9.88651 69.5388 9.84621C70.5894 9.30181 71.7626 9.04272 72.9428 9.0945C74.167 9.09958 75.3393 9.59373 76.2024 10.4686C77.0655 11.3434 77.549 12.5274 77.5469 13.761V19.574C77.5469 19.7137 77.4919 19.8478 77.3939 19.9467C77.2959 20.0457 77.163 20.1015 77.0243 20.1018H76.4679C76.2984 20.1018 76.1306 20.068 75.9741 20.0026C75.8176 19.9371 75.6754 19.8411 75.5558 19.7202C75.4361 19.5993 75.3413 19.4558 75.2767 19.2979C75.2122 19.14 75.1792 18.9709 75.1796 18.8001C74.6277 19.7113 73.0225 20.448 71.8725 20.448C69.4607 20.448 67.7771 19.0019 67.7771 16.9293" fill="white"/>
<path d="M81.4408 8.03493C81.1396 8.02903 80.8469 7.93366 80.5993 7.76079C80.3517 7.58791 80.1603 7.34522 80.049 7.06315C79.9378 6.78109 79.9117 6.47221 79.974 6.17526C80.0363 5.87831 80.1842 5.6065 80.3993 5.39393C80.6143 5.18136 80.8868 5.0375 81.1826 4.98038C81.4785 4.92327 81.7845 4.95544 82.0622 5.07287C82.34 5.19029 82.5772 5.38775 82.744 5.64046C82.9108 5.89318 82.9999 6.1899 83 6.49342C82.9946 6.90571 82.8277 7.29914 82.5356 7.58791C82.2435 7.87668 81.85 8.03737 81.4408 8.03493Z" fill="white"/>
<path d="M82.6231 19.6391C82.6228 19.7637 82.5734 19.8832 82.4859 19.9714C82.3984 20.0596 82.2799 20.1093 82.1561 20.1096H80.7209C80.597 20.1095 80.4783 20.0599 80.3906 19.9717C80.303 19.8835 80.2537 19.7639 80.2536 19.6391V9.7014C80.2539 9.57671 80.3032 9.45722 80.3907 9.36905C80.4782 9.28087 80.5968 9.23119 80.7206 9.23084H82.1558C82.2795 9.23119 82.3981 9.28087 82.4856 9.36905C82.5731 9.45722 82.6224 9.57671 82.6228 9.7014L82.6231 19.6391Z" fill="white"/>
<path d="M12.0534 19.6394C12.053 19.7643 12.0035 19.8839 11.9157 19.9721C11.8279 20.0603 11.7091 20.1099 11.5851 20.1099H10.1522C10.0282 20.1099 9.90935 20.0603 9.82158 19.9721C9.73381 19.8839 9.6843 19.7643 9.68387 19.6394V0.470556C9.6843 0.345664 9.73381 0.226029 9.82158 0.137838C9.90935 0.0496477 10.0282 8.53324e-05 10.1522 0H11.5851C11.7091 8.53324e-05 11.8279 0.0496477 11.9157 0.137838C12.0035 0.226029 12.053 0.345664 12.0534 0.470556V19.6394Z" fill="white"/>
<path d="M7.2097 23.5288C7.20944 23.6538 7.16 23.7736 7.07221 23.8619C6.98443 23.9503 6.86547 23.9999 6.74141 24H5.30845C5.1845 23.9999 5.06563 23.9504 4.97787 23.8622C4.8901 23.774 4.84059 23.6543 4.84016 23.5294V7.46414C4.84042 7.3392 4.88988 7.21946 4.97768 7.13123C5.06548 7.04301 5.18445 6.9935 5.30845 6.99359H6.74141C6.86536 6.99367 6.98422 7.04323 7.07199 7.13143C7.15975 7.21962 7.20927 7.33925 7.2097 7.46414V23.5288Z" fill="white"/>
<path d="M2.36954 19.5141C2.36902 19.6389 2.31947 19.7585 2.23172 19.8466C2.14396 19.9347 2.02514 19.9842 1.90125 19.9843H0.468288C0.344396 19.9842 0.225578 19.9347 0.137822 19.8466C0.0500654 19.7585 0.000512276 19.6389 0 19.5141V3.44847C0.000427084 3.32358 0.0499426 3.20394 0.137708 3.11575C0.225474 3.02756 0.34434 2.978 0.468288 2.97791H1.90125C2.0252 2.978 2.14406 3.02756 2.23183 3.11575C2.31959 3.20394 2.36911 3.32358 2.36954 3.44847V19.5141Z" fill="white"/>
</svg>
